<mxfile host="Electron" modified="2024-06-01T11:53:22.985Z" agent="Mozilla/5.0 (Macintosh; Intel Mac OS X 10_15_7) AppleWebKit/537.36 (KHTML, like Gecko) draw.io/24.4.13 Chrome/124.0.6367.207 Electron/30.0.6 Safari/537.36" etag="9xDOpOaK_4Od8-zlC2BO" version="24.4.13" type="device">
  <diagram name="Страница — 1" id="yZozWYyuqssQquqbpveR">
    <mxGraphModel dx="954" dy="674" grid="1" gridSize="10" guides="1" tooltips="1" connect="1" arrows="1" fold="1" page="1" pageScale="1" pageWidth="827" pageHeight="1169" math="0" shadow="0">
      <root>
        <mxCell id="0" />
        <mxCell id="1" parent="0" />
        <mxCell id="6aC3iOeMLh546gNv-Glp-1" value="" style="rounded=0;whiteSpace=wrap;html=1;fillColor=#d5e8d4;strokeColor=#82b366;" vertex="1" parent="1">
          <mxGeometry width="600" height="170" as="geometry" />
        </mxCell>
        <mxCell id="6aC3iOeMLh546gNv-Glp-2" value="" style="rounded=0;whiteSpace=wrap;html=1;fillColor=#fff2cc;strokeColor=#d6b656;" vertex="1" parent="1">
          <mxGeometry y="170" width="600" height="170" as="geometry" />
        </mxCell>
        <mxCell id="6aC3iOeMLh546gNv-Glp-3" value="" style="rounded=0;whiteSpace=wrap;html=1;fillColor=#f8cecc;strokeColor=#b85450;" vertex="1" parent="1">
          <mxGeometry y="340" width="600" height="170" as="geometry" />
        </mxCell>
        <mxCell id="6aC3iOeMLh546gNv-Glp-5" value="Высокий уровень" style="text;html=1;align=center;verticalAlign=middle;whiteSpace=wrap;rounded=0;rotation=270;" vertex="1" parent="1">
          <mxGeometry x="-55" y="75" width="150" height="30" as="geometry" />
        </mxCell>
        <mxCell id="6aC3iOeMLh546gNv-Glp-6" value="Средний уровень&lt;span style=&quot;color: rgba(0, 0, 0, 0); font-family: monospace; font-size: 0px; text-align: start; text-wrap: nowrap;&quot;&gt;%3CmxGraphModel%3E%3Croot%3E%3CmxCell%20id%3D%220%22%2F%3E%3CmxCell%20id%3D%221%22%20parent%3D%220%22%2F%3E%3CmxCell%20id%3D%222%22%20value%3D%22%D0%92%D1%8B%D1%81%D0%BE%D0%BA%D0%B8%D0%B9%20%D1%83%D1%80%D0%BE%D0%B2%D0%B5%D0%BD%D1%8C%22%20style%3D%22text%3Bhtml%3D1%3Balign%3Dcenter%3BverticalAlign%3Dmiddle%3BwhiteSpace%3Dwrap%3Brounded%3D0%3Brotation%3D270%3B%22%20vertex%3D%221%22%20parent%3D%221%22%3E%3CmxGeometry%20x%3D%22-55%22%20y%3D%2275%22%20width%3D%22150%22%20height%3D%2230%22%20as%3D%22geometry%22%2F%3E%3C%2FmxCell%3E%3C%2Froot%3E%3C%2FmxGraphModel%3E&lt;/span&gt;" style="text;html=1;align=center;verticalAlign=middle;whiteSpace=wrap;rounded=0;rotation=270;" vertex="1" parent="1">
          <mxGeometry x="-55" y="240" width="150" height="30" as="geometry" />
        </mxCell>
        <mxCell id="6aC3iOeMLh546gNv-Glp-7" value="Низкий уровень&lt;span style=&quot;color: rgba(0, 0, 0, 0); font-family: monospace; font-size: 0px; text-align: start; text-wrap: nowrap;&quot;&gt;%3CmxGraphModel%3E%3Croot%3E%3CmxCell%20id%3D%220%22%2F%3E%3CmxCell%20id%3D%221%22%20parent%3D%220%22%2F%3E%3CmxCell%20id%3D%222%22%20value%3D%22%D0%92%D1%8B%D1%81%D0%BE%D0%BA%D0%B8%D0%B9%20%D1%83%D1%80%D0%BE%D0%B2%D0%B5%D0%BD%D1%8C%22%20style%3D%22text%3Bhtml%3D1%3Balign%3Dcenter%3BverticalAlign%3Dmiddle%3BwhiteSpace%3Dwrap%3Brounded%3D0%3Brotation%3D270%3B%22%20vertex%3D%221%22%20parent%3D%221%22%3E%3CmxGeometry%20x%3D%22-55%22%20y%3D%2275%22%20width%3D%22150%22%20height%3D%2230%22%20as%3D%22geometry%22%2F%3E%3C%2FmxCell%3E%3C%2Froot%3E%3C%2FmxGraphModel%3E&lt;/span&gt;" style="text;html=1;align=center;verticalAlign=middle;whiteSpace=wrap;rounded=0;rotation=270;" vertex="1" parent="1">
          <mxGeometry x="-55" y="410" width="150" height="30" as="geometry" />
        </mxCell>
        <mxCell id="6aC3iOeMLh546gNv-Glp-8" value="&lt;span style=&quot;text-align: start; font-size: 12pt; line-height: 18.4px; font-family: &amp;quot;Times New Roman&amp;quot;, serif;&quot; lang=&quot;EN-US&quot;&gt;E&lt;/span&gt;&lt;span style=&quot;text-align: start; font-size: 12pt; line-height: 18.4px; font-family: &amp;quot;Times New Roman&amp;quot;, serif;&quot;&gt;lasticsearch-dsl&lt;/span&gt;&lt;span style=&quot;font-size: medium; text-align: start;&quot;&gt;&lt;/span&gt;" style="ellipse;whiteSpace=wrap;html=1;aspect=fixed;" vertex="1" parent="1">
          <mxGeometry x="80" y="30" width="120" height="120" as="geometry" />
        </mxCell>
        <mxCell id="6aC3iOeMLh546gNv-Glp-14" value="&lt;span style=&quot;text-align: start; line-height: 18.4px; font-family: &amp;quot;Times New Roman&amp;quot;, serif;&quot; lang=&quot;EN-US&quot;&gt;&lt;font style=&quot;font-size: 10px;&quot;&gt;Elasticsearchquerygenerator&lt;/font&gt;&lt;/span&gt;&lt;span style=&quot;text-align: start; font-size: 12pt; line-height: 18.4px; font-family: &amp;quot;Times New Roman&amp;quot;, serif;&quot; lang=&quot;EN-US&quot;&gt;&lt;/span&gt;&lt;span style=&quot;font-size: medium; text-align: start;&quot;&gt;&lt;/span&gt;&lt;br&gt;&lt;span style=&quot;font-size: medium; text-align: start;&quot;&gt;&lt;/span&gt;" style="ellipse;whiteSpace=wrap;html=1;aspect=fixed;" vertex="1" parent="1">
          <mxGeometry x="220" y="30" width="120" height="120" as="geometry" />
        </mxCell>
        <mxCell id="6aC3iOeMLh546gNv-Glp-15" value="&lt;span style=&quot;text-align: start; font-size: 12pt; line-height: 18.4px; font-family: &amp;quot;Times New Roman&amp;quot;, serif;&quot; lang=&quot;EN-US&quot;&gt;E&lt;/span&gt;&lt;span style=&quot;text-align: start; font-size: 12pt; line-height: 18.4px; font-family: &amp;quot;Times New Roman&amp;quot;, serif;&quot;&gt;lasticsearch-py&lt;/span&gt;&lt;span style=&quot;font-size: medium; text-align: start;&quot;&gt;&lt;/span&gt;" style="ellipse;whiteSpace=wrap;html=1;aspect=fixed;" vertex="1" parent="1">
          <mxGeometry x="80" y="195" width="120" height="120" as="geometry" />
        </mxCell>
        <mxCell id="6aC3iOeMLh546gNv-Glp-16" value="&lt;div style=&quot;text-align: start;&quot;&gt;&lt;span style=&quot;background-color: initial; font-size: 16px;&quot;&gt;&lt;font face=&quot;Times New Roman, serif&quot;&gt;HTTP requests&lt;/font&gt;&lt;/span&gt;&lt;/div&gt;&lt;span style=&quot;font-size: medium; text-align: start;&quot;&gt;&lt;/span&gt;" style="ellipse;whiteSpace=wrap;html=1;aspect=fixed;" vertex="1" parent="1">
          <mxGeometry x="80" y="370" width="120" height="120" as="geometry" />
        </mxCell>
      </root>
    </mxGraphModel>
  </diagram>
</mxfile>
